<svg id="visual" viewBox="0 0 1000 550" width="1000" height="550" xmlns="http://www.w3.org/2000/svg" xmlns:xlink="http://www.w3.org/1999/xlink" version="1.1"><path d="M0 128L100 128L100 199L200 199L200 100L300 100L300 95L400 95L400 227L500 227L500 100L600 100L600 271L700 271L700 111L800 111L800 172L900 172L900 122L1000 122L1000 183L1000 0L1000 0L900 0L900 0L800 0L800 0L700 0L700 0L600 0L600 0L500 0L500 0L400 0L400 0L300 0L300 0L200 0L200 0L100 0L100 0L0 0Z" fill="#b0235f"></path><path d="M0 194L100 194L100 221L200 221L200 128L300 128L300 122L400 122L400 254L500 254L500 177L600 177L600 353L700 353L700 166L800 166L800 210L900 210L900 166L1000 166L1000 199L1000 181L1000 120L900 120L900 170L800 170L800 109L700 109L700 269L600 269L600 98L500 98L500 225L400 225L400 93L300 93L300 98L200 98L200 197L100 197L100 126L0 126Z" fill="#bc2e61"></path><path d="M0 337L100 337L100 287L200 287L200 238L300 238L300 271L400 271L400 326L500 326L500 232L600 232L600 397L700 397L700 287L800 287L800 337L900 337L900 232L1000 232L1000 271L1000 197L1000 164L900 164L900 208L800 208L800 164L700 164L700 351L600 351L600 175L500 175L500 252L400 252L400 120L300 120L300 126L200 126L200 219L100 219L100 192L0 192Z" fill="#c73962"></path><path d="M0 386L100 386L100 342L200 342L200 348L300 348L300 370L400 370L400 447L500 447L500 315L600 315L600 447L700 447L700 326L800 326L800 375L900 375L900 331L1000 331L1000 337L1000 269L1000 230L900 230L900 335L800 335L800 285L700 285L700 395L600 395L600 230L500 230L500 324L400 324L400 269L300 269L300 236L200 236L200 285L100 285L100 335L0 335Z" fill="#d34463"></path><path d="M0 397L100 397L100 380L200 380L200 364L300 364L300 408L400 408L400 485L500 485L500 380L600 380L600 458L700 458L700 348L800 348L800 414L900 414L900 359L1000 359L1000 403L1000 335L1000 329L900 329L900 373L800 373L800 324L700 324L700 445L600 445L600 313L500 313L500 445L400 445L400 368L300 368L300 346L200 346L200 340L100 340L100 384L0 384Z" fill="#dd5065"></path><path d="M0 480L100 480L100 485L200 485L200 458L300 458L300 485L400 485L400 513L500 513L500 463L600 463L600 513L700 513L700 441L800 441L800 447L900 447L900 452L1000 452L1000 496L1000 401L1000 357L900 357L900 412L800 412L800 346L700 346L700 456L600 456L600 378L500 378L500 483L400 483L400 406L300 406L300 362L200 362L200 378L100 378L100 395L0 395Z" fill="#e75b66"></path><path d="M0 491L100 491L100 507L200 507L200 502L300 502L300 535L400 535L400 535L500 535L500 529L600 529L600 535L700 535L700 496L800 496L800 502L900 502L900 502L1000 502L1000 540L1000 494L1000 450L900 450L900 445L800 445L800 439L700 439L700 511L600 511L600 461L500 461L500 511L400 511L400 483L300 483L300 456L200 456L200 483L100 483L100 478L0 478Z" fill="#f16667"></path><path d="M0 551L100 551L100 551L200 551L200 551L300 551L300 551L400 551L400 551L500 551L500 551L600 551L600 551L700 551L700 551L800 551L800 551L900 551L900 551L1000 551L1000 551L1000 538L1000 500L900 500L900 500L800 500L800 494L700 494L700 533L600 533L600 527L500 527L500 533L400 533L400 533L300 533L300 500L200 500L200 505L100 505L100 489L0 489Z" fill="#fa7268"></path></svg>